<svg id="Capa_1" enable-background="new 0 0 512 512" height="512" viewBox="0 0 512 512" width="512" xmlns="http://www.w3.org/2000/svg"><g id="XMLID_9_"><g fill="#0079c2"><path id="XMLID_1555_" d="m243.626 0h30v69.936h-30z"/><path id="XMLID_1552_" d="m243.626 110.516h30v69.936h-30z"/><path id="XMLID_1550_" d="m243.626 221.032h30v69.937h-30z"/><path id="XMLID_1549_" d="m243.626 331.548h30v69.936h-30z"/><path id="XMLID_1548_" d="m243.626 442.064h30v69.936h-30z"/><path id="XMLID_210_" d="m3.011 4.936h78.498v169.417h-78.498z"/><path id="XMLID_1574_" d="m430.49 293.404h78.499v169.417h-78.499z"/></g><path id="XMLID_44_" d="m362.995 375.099c7.846 0 15.363-6.899 15-15-.364-8.127-6.591-15-15-15-7.846 0-15.363 6.899-15 15 .364 8.127 6.591 15 15 15z" fill="#ff3f5c"/><path id="XMLID_87_" d="m258.626 0h15v69.936h-15z" fill="#00465f"/><path id="XMLID_105_" d="m258.626 110.516h15v69.936h-15z" fill="#00465f"/><path id="XMLID_106_" d="m258.626 221.032h15v69.937h-15z" fill="#00465f"/><path id="XMLID_109_" d="m258.626 331.548h15v69.936h-15z" fill="#00465f"/><path id="XMLID_111_" d="m258.626 442.064h15v69.936h-15z" fill="#00465f"/><path id="XMLID_1743_" d="m42.26 4.936h39.249v169.417h-39.249z" fill="#00465f"/><path id="XMLID_235_" d="m469.74 293.404h39.25v169.417h-39.25z" fill="#005285"/></g></svg>